<?xml version="1.0" encoding="utf-8"?>
<!-- Generator: Adobe Illustrator 24.0.0, SVG Export Plug-In . SVG Version: 6.00 Build 0)  -->
<svg version="1.1" id="Layer_1" xmlns="http://www.w3.org/2000/svg" xmlns:xlink="http://www.w3.org/1999/xlink" x="0px" y="0px"
	 viewBox="0 0 2914.5 344.5" style="enable-background:new 0 0 2914.5 344.5;" xml:space="preserve">
<style type="text/css">
	.st0{fill:#339EB8;}
	.st1{fill:#3766AF;}
	.st2{fill:#FFFFFF;}
</style>
<g>
	<path class="st0" d="M179.2,190.9c-42.8,30.7-85.4,61.1-127.6,91.8c-9.6,7-21.8,14.9-18.3,28.9c4,16.1,19,11.2,30.1,11.2
		c97.6,0.3,195.2-0.2,292.8,0.4c28.1,0.2,44.9-11.4,48.9-41.1C415,209,425.3,136,434.9,62.9c2-15.2,10-34.9-17.8-34.9
		c-76.3,0-154.1-10.9-224.5,33.3C130.1,100.6,125.5,137.4,179.2,190.9z"/>
	<path class="st1" d="M782.2,190.9c42.8,30.7,85.4,61.1,127.6,91.8c9.6,7,21.8,14.9,18.3,28.9c-4,16.1-19,11.2-30.1,11.2
		c-97.6,0.3-195.2-0.2-292.8,0.4c-28.2,0.2-44.9-11.4-48.9-41.1C546.3,209,536,136,526.4,62.9c-2-15.2-10-34.9,17.8-34.9
		c76.3,0,154.1-10.9,224.5,33.3C831.2,100.6,835.9,137.4,782.2,190.9z"/>
	<g>
		<path class="st2" d="M477.5,262.1c0,12.5,0,25,0,37.5c0,1.8,0,3.5,0,5.3c0,4.1,6.1,4.1,6.1,0c0-12.5,0-25,0-37.5
			c0-1.8,0-3.5,0-5.3C483.6,258,477.5,258,477.5,262.1L477.5,262.1z"/>
	</g>
	<g>
		<path class="st2" d="M477.5,190.2c0,12.5,0,25,0,37.6c0,1.8,0,3.6,0,5.3c0,4.1,6.1,4.1,6.1,0c0-12.5,0-25,0-37.6
			c0-1.8,0-3.6,0-5.3C483.6,186.1,477.5,186.1,477.5,190.2L477.5,190.2z"/>
	</g>
	<g>
		<path class="st2" d="M477.5,118.3c0,12.5,0,25,0,37.6c0,1.8,0,3.6,0,5.3c0,4.1,6.1,4.1,6.1,0c0-12.5,0-25,0-37.6
			c0-1.8,0-3.6,0-5.3C483.6,114.2,477.5,114.2,477.5,118.3L477.5,118.3z"/>
	</g>
	<g>
		<path class="st2" d="M477.5,46.4c0,12.5,0,25,0,37.6c0,1.8,0,3.6,0,5.3c0,4.1,6.1,4.1,6.1,0c0-12.5,0-25,0-37.5c0-1.8,0-3.5,0-5.3
			C483.6,42.3,477.5,42.3,477.5,46.4L477.5,46.4z"/>
	</g>
</g>
<g>
	<path class="st2" d="M2813.9,58.7V27.5h-12.6V21h32.3v6.5h-12.6v31.3C2821.1,58.7,2813.9,58.7,2813.9,58.7z M2838.8,58.7V21h13.6
		l7.1,31.3h1.7l7.1-31.3h13.6v37.7h-7.1V27.5h-1.7l-7.1,31.3h-11.2l-7.1-31.3h-1.7v31.3C2845.9,58.7,2838.8,58.7,2838.8,58.7z"/>
</g>
<g>
	<g>
		<path class="st0" d="M1159,299.8v-264h51.1v264H1159z M1196.6,189.8v-40.2h60.8c12.8,0,22.5-3.2,29.3-9.6s10.1-15.1,10.1-26.1
			c0-10.5-3.4-19.2-10.1-26.1c-6.8-6.9-16.4-10.3-28.9-10.3h-61.2V35.8h66.1c16.8,0,31.6,3.3,44.5,10c12.9,6.6,22.9,15.7,30,27.2
			c7.1,11.5,10.7,24.8,10.7,39.8c0,15.5-3.6,29-10.7,40.4c-7.1,11.4-17.2,20.3-30.2,26.9c-13,6.5-28.2,9.8-45.4,9.8L1196.6,189.8
			L1196.6,189.8z M1303.2,299.8l-87.5-114.2L1263,171l102.2,128.8H1303.2z"/>
	</g>
	<g>
		<path class="st0" d="M1450.1,303.9c-19,0-36-4.1-50.9-12.4c-14.9-8.3-26.6-19.5-35.1-33.8c-8.5-14.3-12.8-30.5-12.8-48.8
			c0-18,4.2-34.2,12.6-48.4s19.8-25.5,34.4-33.8s30.8-12.4,48.8-12.4c17,0,32.3,3.9,45.8,11.6c13.5,7.8,24,18.5,31.6,32.3
			s11.3,29.4,11.3,46.9c0,3.3-0.1,6.6-0.4,9.9c-0.3,3.4-0.9,7.1-1.9,11.1l-152.9,0.4v-36.8l129.9-0.4l-20.3,15.4
			c-0.3-10.8-2.1-19.8-5.6-27c-3.5-7.3-8.4-12.8-14.7-16.5c-6.3-3.8-14-5.6-23.3-5.6c-9.8,0-18.3,2.1-25.5,6.4
			c-7.3,4.3-12.8,10.3-16.7,18.2c-3.9,7.9-5.8,17.2-5.8,28c0,11,2.1,20.6,6.2,28.7c4.1,8.1,10.1,14.3,17.8,18.6
			c7.8,4.3,16.8,6.4,27,6.4c9.3,0,17.7-1.5,25.2-4.5c7.5-3,14-7.8,19.5-14.3l29.3,29.3c-9.3,10.5-20.2,18.4-32.7,23.7
			C1478.5,301.3,1464.8,303.9,1450.1,303.9z"/>
	</g>
	<g>
		<path class="st0" d="M1547.7,299.8V118.4h49.2v181.4H1547.7z M1669.4,299.8v-104c0-10.8-3.4-19.5-10.1-26.3s-15.4-10.1-25.9-10.1
			c-7,0-13.3,1.5-18.8,4.5c-5.5,3-9.8,7.3-13,13c-3.1,5.6-4.7,12-4.7,19l-19.2-10.1c0-14,3.1-26.4,9.2-37c6.1-10.6,14.7-19,25.5-25
			c10.9-6,23.2-9,37-9c13.5,0,25.5,3.3,35.9,9.9c10.4,6.6,18.6,15.3,24.6,25.9c6,10.6,9,22,9,34v115.3L1669.4,299.8L1669.4,299.8z"
			/>
	</g>
	<g>
		<path class="st0" d="M1722,161.6v-43.2h134.1v43.2H1722z M1764.4,299.8V42.9h49.2v256.9H1764.4z"/>
	</g>
	<g>
		<path class="st0" d="M1936.1,303.6c-16.5,0-31.4-4.1-44.5-12.4c-13.1-8.3-23.5-19.5-31-33.8c-7.5-14.3-11.3-30.3-11.3-48.1
			c0-18,3.8-34.2,11.3-48.4s17.8-25.5,31-33.8c13.2-8.3,28.1-12.4,44.9-12.4c12.8,0,24.3,2.6,34.6,7.9c10.3,5.3,18.5,12.5,24.8,21.8
			c6.3,9.3,9.6,19.9,10.1,31.9V242c-0.5,11.8-3.8,22.4-9.9,31.7c-6.1,9.4-14.4,16.7-24.8,22C1960.8,300.9,1949.1,303.6,1936.1,303.6
			z M1945.4,258.1c13.8,0,24.9-4.6,33.4-13.9c8.5-9.3,12.8-20.9,12.8-34.9c0-9.5-2-18-6-25.5c-4-7.5-9.4-13.3-16.2-17.5
			c-6.8-4.1-14.8-6.2-24-6.2c-9,0-17,2.1-23.8,6.4c-6.9,4.3-12.3,10-16.2,17.3c-3.9,7.3-5.8,15.6-5.8,25.2c0,9.8,1.9,18.3,5.8,25.5
			c3.9,7.3,9.3,13,16.3,17.3C1928.8,256,1936.7,258.1,1945.4,258.1z M1988.6,299.8V251l8.3-44.3l-8.3-43.9v-44.3h49.6v181.4H1988.6z
			"/>
	</g>
	<g>
		<path class="st1" d="M2144.7,299.8v-264h51.1v264H2144.7z M2182.2,189.8v-40.2h60.8c12.8,0,22.5-3.2,29.3-9.6
			c6.8-6.4,10.1-15.1,10.1-26.1c0-10.5-3.4-19.2-10.1-26.1c-6.8-6.9-16.4-10.3-28.9-10.3h-61.2V35.8h66.1c16.8,0,31.6,3.3,44.5,10
			c12.9,6.6,22.9,15.7,30,27.2c7.1,11.5,10.7,24.8,10.7,39.8c0,15.5-3.6,29-10.7,40.4c-7.1,11.4-17.2,20.3-30.2,26.9
			c-13,6.5-28.2,9.8-45.4,9.8L2182.2,189.8L2182.2,189.8z M2288.9,299.8l-87.5-114.2l47.3-14.6l102.1,128.8H2288.9z"/>
	</g>
	<g>
		<path class="st1" d="M2385.8,89.1c-8,0-14.6-2.7-19.9-8.1S2358,69,2358,61c0-7.8,2.6-14.4,7.9-19.9c5.3-5.5,11.9-8.3,19.9-8.3
			c8.3,0,15,2.8,20.1,8.3c5.1,5.5,7.7,12.2,7.7,19.9c0,8-2.6,14.7-7.7,20.1C2400.8,86.4,2394.1,89.1,2385.8,89.1z M2360.6,299.8
			V118.4h49.9v181.4H2360.6z"/>
	</g>
	<g>
		<path class="st1" d="M2511.6,303.6c-16.8,0-31.7-4.1-44.9-12.4s-23.6-19.5-31.4-33.8c-7.8-14.3-11.6-30.3-11.6-48.1
			c0-18,3.9-34.2,11.6-48.4s18.2-25.5,31.4-33.8c13.1-8.3,28.1-12.4,44.9-12.4c13,0,24.8,2.7,35.3,8.1c10.5,5.4,19,12.7,25.4,22
			c6.4,9.3,9.8,19.8,10.3,31.6v64.6c-0.5,12-3.9,22.8-10.1,32.3c-6.3,9.5-14.6,17-25.2,22.4C2536.8,300.9,2524.9,303.6,2511.6,303.6
			z M2520.3,258.1c9,0,17-2.1,24-6.4c7-4.3,12.4-10,16.3-17.3c3.9-7.3,5.8-15.6,5.8-25.2c0-9.8-1.9-18.3-5.8-25.5
			c-3.9-7.3-9.3-13-16.1-17.3c-6.9-4.3-14.8-6.4-23.9-6.4c-9.3,0-17.3,2.1-24.2,6.2c-6.9,4.1-12.3,9.9-16.1,17.3
			c-3.9,7.4-5.8,15.8-5.8,25.4c0,9.8,1.9,18.3,5.8,25.7c3.9,7.4,9.3,13.1,16.3,17.3C2503.6,256,2511.5,258.1,2520.3,258.1z
			 M2613,299.8h-49.6V251l8.3-44.3l-8.6-43.9V28.3h49.9V299.8z"/>
	</g>
	<g>
		<path class="st1" d="M2723.8,303.9c-19,0-36-4.1-50.9-12.4c-14.9-8.3-26.6-19.5-35.1-33.8c-8.5-14.3-12.8-30.5-12.8-48.8
			c0-18,4.2-34.2,12.6-48.4c8.4-14.3,19.8-25.5,34.4-33.8s30.8-12.4,48.8-12.4c17,0,32.3,3.9,45.8,11.6c13.5,7.8,24,18.5,31.6,32.3
			s11.3,29.4,11.3,46.9c0,3.3-0.1,6.6-0.4,9.9c-0.3,3.4-0.9,7.1-1.9,11.1l-152.9,0.4v-36.8l129.9-0.4l-20.3,15.4
			c-0.3-10.8-2.1-19.8-5.6-27c-3.5-7.3-8.4-12.8-14.6-16.5c-6.3-3.8-14-5.6-23.3-5.6c-9.8,0-18.3,2.1-25.5,6.4
			c-7.3,4.3-12.8,10.3-16.7,18.2c-3.9,7.9-5.8,17.2-5.8,28c0,11,2.1,20.6,6.2,28.7c4.1,8.1,10.1,14.3,17.8,18.6
			c7.8,4.3,16.8,6.4,27,6.4c9.3,0,17.6-1.5,25.2-4.5c7.5-3,14-7.8,19.5-14.3l29.3,29.3c-9.3,10.5-20.2,18.4-32.7,23.7
			C2752.2,301.3,2738.6,303.9,2723.8,303.9z"/>
	</g>
</g>
</svg>
