<?xml version="1.0" encoding="utf-8"?>
<!-- Generator: Adobe Illustrator 24.0.0, SVG Export Plug-In . SVG Version: 6.00 Build 0)  -->
<svg version="1.1" id="Layer_1" xmlns="http://www.w3.org/2000/svg" xmlns:xlink="http://www.w3.org/1999/xlink" x="0px" y="0px"
	 viewBox="0 0 2736.3 989.3" style="enable-background:new 0 0 2736.3 989.3;" xml:space="preserve">
<style type="text/css">
	.st0{fill:#339EB8;}
	.st1{fill:#3766AF;}
	.st2{fill:#BBBDBF;}
</style>
<g>
	<path class="st0" d="M477.3,541.2C350.8,632,225,721.6,100.1,812.4c-28.4,20.6-64.3,44-54.1,85.4c11.7,47.6,56.2,33,89,33.1
		c288.4,0.8,576.9-0.7,865.3,1.2c83.2,0.5,132.6-33.6,144.5-121.5c29.3-216,59.8-431.7,88.1-647.8c5.9-45,29.5-103.1-52.5-103.1
		c-225.5,0-455.2-32.1-663.3,98.5C332.3,274.3,318.6,383.3,477.3,541.2z"/>
	<path class="st1" d="M2259,541.2c126.5,90.8,252.2,180.5,377.2,271.3c28.4,20.6,64.3,44,54.1,85.4c-11.7,47.6-56.2,33-89,33.1
		c-288.4,0.8-576.9-0.7-865.3,1.2c-83.2,0.5-132.6-33.6-144.5-121.5c-29.3-216-59.8-431.7-88.1-647.8c-5.9-45-29.5-103.1,52.5-103.1
		c225.5,0,455.2-32.1,663.3,98.5C2404,274.3,2417.7,383.3,2259,541.2z"/>
	<g>
		<g>
			<path class="st2" d="M1358.7,751.8c0,37,0,74,0,111c0,5.3,0,10.5,0,15.7c0,12.2,18.1,12.2,18.1,0c0-37,0-74,0-111
				c0-5.3,0-10.5,0-15.7C1376.9,739.6,1358.7,739.6,1358.7,751.8L1358.7,751.8z"/>
		</g>
	</g>
	<g>
		<g>
			<path class="st2" d="M1358.7,539.3c0,37,0,74,0,111c0,5.3,0,10.5,0,15.7c0,12.2,18.1,12.2,18.1,0c0-37,0-74,0-111
				c0-5.3,0-10.5,0-15.7C1376.9,527.1,1358.7,527.1,1358.7,539.3L1358.7,539.3z"/>
		</g>
	</g>
	<g>
		<g>
			<path class="st2" d="M1358.7,326.8c0,37,0,74,0,110.9c0,5.3,0,10.5,0,15.7c0,12.1,18.1,12.2,18.1,0c0-37,0-74,0-111
				c0-5.3,0-10.5,0-15.7C1376.9,314.6,1358.7,314.6,1358.7,326.8L1358.7,326.8z"/>
		</g>
	</g>
	<g>
		<g>
			<path class="st2" d="M1358.7,114.3c0,37,0,74,0,110.9c0,5.3,0,10.5,0,15.7c0,12.1,18.1,12.2,18.1,0c0-37,0-74,0-110.9
				c0-5.3,0-10.5,0-15.7C1376.9,102.2,1358.7,102.1,1358.7,114.3L1358.7,114.3z"/>
		</g>
	</g>
</g>
</svg>
