<?xml version="1.0" encoding="utf-8"?>
<!-- Generator: Adobe Illustrator 24.0.0, SVG Export Plug-In . SVG Version: 6.00 Build 0)  -->
<svg version="1.1" id="Layer_1" xmlns="http://www.w3.org/2000/svg" xmlns:xlink="http://www.w3.org/1999/xlink" x="0px" y="0px"
	 viewBox="0 0 2736.3 989.32" style="enable-background:new 0 0 2736.3 989.32;" xml:space="preserve">
<style type="text/css">
	.st0{fill:#339EB8;}
	.st1{fill:#3766AF;}
	.st2{fill:#BBBDBF;}
</style>
<g>
	<path class="st0" d="M477.26,541.16c-126.5,90.83-252.22,180.48-377.16,271.29c-28.4,20.64-64.26,44.03-54.12,85.43
		c11.67,47.64,56.23,33.04,89.04,33.13c288.43,0.76,576.87-0.7,865.29,1.15c83.17,0.54,132.58-33.63,144.52-121.48
		c29.35-215.95,59.85-431.73,88.13-647.83c5.89-45.02,29.51-103.1-52.48-103.1c-225.48,0-455.22-32.06-663.33,98.53
		C332.28,274.28,318.58,383.28,477.26,541.16z"/>
	<path class="st1" d="M2259.04,541.16c126.5,90.83,252.22,180.48,377.16,271.29c28.4,20.64,64.26,44.03,54.12,85.43
		c-11.67,47.64-56.23,33.04-89.04,33.13c-288.43,0.76-576.87-0.7-865.29,1.15c-83.17,0.54-132.58-33.63-144.52-121.48
		c-29.35-215.95-59.85-431.73-88.13-647.83c-5.89-45.02-29.51-103.1,52.48-103.1c225.48,0,455.22-32.06,663.33,98.53
		C2404.02,274.28,2417.72,383.28,2259.04,541.16z"/>
	<g>
		<g>
			<path class="st2" d="M1358.74,751.77c0,36.98,0,73.96,0,110.95c0,5.25,0,10.49,0,15.74c0,12.15,18.11,12.17,18.11,0
				c0-36.98,0-73.96,0-110.95c0-5.25,0-10.49,0-15.74C1376.86,739.62,1358.74,739.6,1358.74,751.77L1358.74,751.77z"/>
		</g>
	</g>
	<g>
		<g>
			<path class="st2" d="M1358.74,539.28c0,36.98,0,73.96,0,110.95c0,5.25,0,10.49,0,15.74c0,12.15,18.11,12.17,18.11,0
				c0-36.98,0-73.96,0-110.95c0-5.25,0-10.49,0-15.74C1376.86,527.13,1358.74,527.11,1358.74,539.28L1358.74,539.28z"/>
		</g>
	</g>
	<g>
		<g>
			<path class="st2" d="M1358.74,326.79c0,36.98,0,73.96,0,110.95c0,5.25,0,10.49,0,15.74c0,12.15,18.11,12.17,18.11,0
				c0-36.98,0-73.96,0-110.95c0-5.25,0-10.49,0-15.74C1376.86,314.64,1358.74,314.62,1358.74,326.79L1358.74,326.79z"/>
		</g>
	</g>
	<g>
		<g>
			<path class="st2" d="M1358.74,114.3c0,36.98,0,73.96,0,110.94c0,5.25,0,10.49,0,15.74c0,12.15,18.11,12.17,18.11,0
				c0-36.98,0-73.96,0-110.95c0-5.25,0-10.49,0-15.74C1376.86,102.15,1358.74,102.13,1358.74,114.3L1358.74,114.3z"/>
		</g>
	</g>
</g>
</svg>
