<?xml version="1.0" encoding="utf-8"?>
<!-- Generator: Adobe Illustrator 24.0.0, SVG Export Plug-In . SVG Version: 6.00 Build 0)  -->
<svg version="1.1" id="Layer_1" xmlns="http://www.w3.org/2000/svg" xmlns:xlink="http://www.w3.org/1999/xlink" x="0px" y="0px"
	 viewBox="0 0 2914.52 344.52" style="enable-background:new 0 0 2914.52 344.52;" xml:space="preserve">
<style type="text/css">
	.st0{fill:#339EB8;}
	.st1{fill:#3766AF;}
	.st2{fill:#FFFFFF;}
</style>
<g>
	<path class="st0" d="M179.16,190.88c-42.81,30.74-85.36,61.08-127.64,91.81c-9.61,6.99-21.75,14.9-18.32,28.91
		c3.95,16.12,19.03,11.18,30.13,11.21c97.61,0.26,195.23-0.24,292.84,0.39c28.15,0.18,44.87-11.38,48.91-41.11
		c9.93-73.08,20.25-146.11,29.82-219.24c1.99-15.24,9.99-34.89-17.76-34.89c-76.31,0-154.06-10.85-224.49,33.34
		C130.09,100.56,125.46,137.44,179.16,190.88z"/>
	<path class="st1" d="M782.16,190.88c42.81,30.74,85.36,61.08,127.64,91.81c9.61,6.99,21.75,14.9,18.32,28.91
		c-3.95,16.12-19.03,11.18-30.13,11.21c-97.61,0.26-195.23-0.24-292.84,0.39c-28.15,0.18-44.87-11.38-48.91-41.11
		c-9.93-73.08-20.25-146.11-29.82-219.24c-1.99-15.24-9.99-34.89,17.76-34.89c76.31,0,154.06-10.85,224.49,33.34
		C831.22,100.56,835.86,137.44,782.16,190.88z"/>
	<g>
		<path class="st2" d="M477.47,262.15c0,12.52,0,25.03,0,37.55c0,1.78,0,3.55,0,5.33c0,4.11,6.13,4.12,6.13,0
			c0-12.52,0-25.03,0-37.55c0-1.78,0-3.55,0-5.33C483.6,258.04,477.47,258.03,477.47,262.15L477.47,262.15z"/>
	</g>
	<g>
		<path class="st2" d="M477.47,190.24c0,12.52,0,25.03,0,37.55c0,1.78,0,3.55,0,5.33c0,4.11,6.13,4.12,6.13,0
			c0-12.52,0-25.03,0-37.55c0-1.78,0-3.55,0-5.33C483.6,186.13,477.47,186.12,477.47,190.24L477.47,190.24z"/>
	</g>
	<g>
		<path class="st2" d="M477.47,118.33c0,12.52,0,25.03,0,37.55c0,1.78,0,3.55,0,5.33c0,4.11,6.13,4.12,6.13,0
			c0-12.52,0-25.03,0-37.55c0-1.78,0-3.55,0-5.33C483.6,114.22,477.47,114.21,477.47,118.33L477.47,118.33z"/>
	</g>
	<g>
		<path class="st2" d="M477.47,46.42c0,12.52,0,25.03,0,37.55c0,1.78,0,3.55,0,5.33c0,4.11,6.13,4.12,6.13,0
			c0-12.52,0-25.03,0-37.55c0-1.78,0-3.55,0-5.33C483.6,42.3,477.47,42.3,477.47,46.42L477.47,46.42z"/>
	</g>
</g>
<g>
	<path class="st2" d="M2813.93,58.74V27.47h-12.57v-6.46h32.3v6.46h-12.58v31.27H2813.93z M2838.75,58.74V21.02h13.6l7.13,31.27h1.7
		l7.14-31.27h13.58v37.73h-7.13V27.47h-1.7l-7.14,31.27h-11.21l-7.14-31.27h-1.69v31.27H2838.75z"/>
</g>
<g>
	<g>
		<path class="st0" d="M1159.01,299.8V35.78h51.08V299.8H1159.01z M1196.57,189.76v-40.19h60.84c12.77,0,22.54-3.19,29.3-9.58
			s10.14-15.08,10.14-26.1c0-10.52-3.38-19.21-10.14-26.1c-6.76-6.88-16.4-10.33-28.92-10.33h-61.22V35.78h66.1
			c16.77,0,31.61,3.32,44.51,9.95c12.89,6.64,22.91,15.72,30.04,27.23c7.14,11.52,10.7,24.79,10.7,39.81
			c0,15.53-3.57,28.98-10.7,40.37c-7.14,11.4-17.22,20.34-30.23,26.85c-13.02,6.51-28.17,9.77-45.44,9.77H1196.57z M1303.23,299.8
			l-87.51-114.17l47.32-14.65L1365.2,299.8H1303.23z"/>
	</g>
	<g>
		<path class="st0" d="M1450.08,303.93c-19.03,0-36-4.13-50.89-12.39c-14.9-8.26-26.61-19.53-35.12-33.8
			c-8.51-14.27-12.77-30.54-12.77-48.82c0-18.03,4.19-34.18,12.58-48.45c8.39-14.27,19.84-25.54,34.36-33.8
			c14.52-8.26,30.8-12.39,48.82-12.39c17.02,0,32.3,3.89,45.82,11.64c13.52,7.76,24.04,18.53,31.55,32.3
			c7.51,13.77,11.27,29.42,11.27,46.95c0,3.26-0.13,6.57-0.38,9.95c-0.25,3.38-0.88,7.08-1.88,11.08l-152.86,0.38v-36.81
			l129.95-0.38l-20.28,15.4c-0.25-10.76-2.13-19.78-5.63-27.04c-3.51-7.26-8.39-12.77-14.65-16.52c-6.26-3.76-14.03-5.63-23.29-5.63
			c-9.76,0-18.28,2.13-25.54,6.39c-7.27,4.26-12.83,10.33-16.71,18.22c-3.89,7.89-5.82,17.22-5.82,27.98
			c0,11.02,2.07,20.6,6.2,28.73c4.13,8.14,10.08,14.34,17.84,18.59c7.76,4.26,16.77,6.39,27.04,6.39c9.26,0,17.65-1.5,25.16-4.51
			c7.51-3,14.02-7.76,19.53-14.27l29.29,29.29c-9.27,10.52-20.16,18.4-32.67,23.66C1478.5,301.3,1464.85,303.93,1450.08,303.93z"/>
	</g>
	<g>
		<path class="st0" d="M1547.72,299.8V118.4h49.2v181.4H1547.72z M1669.41,299.8V195.77c0-10.76-3.38-19.53-10.14-26.29
			s-15.4-10.14-25.91-10.14c-7.01,0-13.27,1.5-18.78,4.51c-5.51,3-9.83,7.32-12.96,12.96c-3.13,5.63-4.69,11.96-4.69,18.97
			l-19.15-10.14c0-14.02,3.06-26.35,9.2-36.99c6.13-10.64,14.65-18.97,25.54-24.98c10.89-6.01,23.22-9.01,36.99-9.01
			c13.52,0,25.47,3.32,35.87,9.95c10.39,6.64,18.59,15.28,24.6,25.91c6.01,10.65,9.01,21.97,9.01,33.99v115.3H1669.41z"/>
	</g>
	<g>
		<path class="st0" d="M1721.99,161.59V118.4h134.08v43.19H1721.99z M1764.43,299.8V42.91h49.2V299.8H1764.43z"/>
	</g>
	<g>
		<path class="st0" d="M1936.06,303.56c-16.53,0-31.36-4.13-44.51-12.39c-13.14-8.26-23.47-19.53-30.98-33.8
			c-7.51-14.27-11.27-30.29-11.27-48.07c0-18.03,3.76-34.18,11.27-48.45c7.51-14.27,17.84-25.54,30.98-33.8
			c13.15-8.26,28.1-12.39,44.88-12.39c12.77,0,24.28,2.63,34.55,7.89c10.26,5.26,18.53,12.53,24.79,21.78
			c6.26,9.27,9.64,19.91,10.14,31.92v65.73c-0.51,11.77-3.82,22.35-9.95,31.74c-6.14,9.39-14.4,16.71-24.79,21.97
			C1960.79,300.93,1949.08,303.56,1936.06,303.56z M1945.45,258.11c13.77,0,24.91-4.63,33.43-13.89
			c8.51-9.26,12.77-20.9,12.77-34.93c0-9.51-2.01-18.03-6.01-25.54c-4.01-7.51-9.39-13.33-16.15-17.46
			c-6.76-4.13-14.78-6.2-24.04-6.2c-9.01,0-16.97,2.13-23.85,6.39c-6.89,4.26-12.27,10.02-16.15,17.28
			c-3.89,7.26-5.82,15.65-5.82,25.16c0,9.76,1.94,18.28,5.82,25.54c3.88,7.27,9.32,13.02,16.34,17.28
			C1928.8,255.99,1936.68,258.11,1945.45,258.11z M1988.64,299.8v-48.82l8.26-44.32l-8.26-43.94V118.4h49.57v181.4H1988.64z"/>
	</g>
	<g>
		<path class="st1" d="M2144.68,299.8V35.78h51.08V299.8H2144.68z M2182.24,189.76v-40.19h60.84c12.77,0,22.54-3.19,29.29-9.58
			c6.76-6.39,10.14-15.08,10.14-26.1c0-10.52-3.38-19.21-10.14-26.1c-6.76-6.88-16.4-10.33-28.92-10.33h-61.22V35.78h66.1
			c16.77,0,31.61,3.32,44.51,9.95c12.89,6.64,22.91,15.72,30.04,27.23c7.14,11.52,10.7,24.79,10.7,39.81
			c0,15.53-3.57,28.98-10.7,40.37c-7.14,11.4-17.22,20.34-30.23,26.85c-13.02,6.51-28.17,9.77-45.44,9.77H2182.24z M2288.9,299.8
			l-87.51-114.17l47.32-14.65l102.15,128.82H2288.9z"/>
	</g>
	<g>
		<path class="st1" d="M2385.8,89.11c-8.02,0-14.65-2.69-19.91-8.07c-5.26-5.38-7.89-12.08-7.89-20.09c0-7.76,2.63-14.39,7.89-19.91
			c5.26-5.51,11.89-8.26,19.91-8.26c8.26,0,14.96,2.76,20.09,8.26c5.13,5.51,7.7,12.15,7.7,19.91c0,8.02-2.57,14.71-7.7,20.09
			C2400.75,86.42,2394.06,89.11,2385.8,89.11z M2360.63,299.8V118.4h49.95v181.4H2360.63z"/>
	</g>
	<g>
		<path class="st1" d="M2511.61,303.56c-16.78,0-31.74-4.13-44.88-12.39c-13.14-8.26-23.6-19.53-31.36-33.8
			c-7.76-14.27-11.64-30.29-11.64-48.07c0-18.03,3.88-34.18,11.64-48.45c7.76-14.27,18.22-25.54,31.36-33.8
			c13.15-8.26,28.1-12.39,44.88-12.39c13.02,0,24.79,2.69,35.3,8.07c10.52,5.39,18.97,12.71,25.35,21.97
			c6.38,9.27,9.82,19.78,10.33,31.55v64.6c-0.51,12.02-3.89,22.79-10.14,32.3c-6.26,9.52-14.65,16.96-25.16,22.35
			C2536.77,300.86,2524.88,303.56,2511.61,303.56z M2520.25,258.11c9.01,0,17.02-2.12,24.04-6.38c7.01-4.25,12.45-10.01,16.34-17.28
			c3.88-7.26,5.82-15.64,5.82-25.16c0-9.76-1.94-18.27-5.82-25.54c-3.89-7.26-9.27-13.02-16.15-17.28
			c-6.89-4.25-14.83-6.39-23.85-6.39c-9.27,0-17.34,2.07-24.22,6.2c-6.89,4.13-12.27,9.89-16.15,17.28
			c-3.89,7.39-5.82,15.84-5.82,25.35c0,9.76,1.94,18.34,5.82,25.73c3.88,7.39,9.32,13.14,16.34,17.28
			C2503.59,256.05,2511.48,258.11,2520.25,258.11z M2613.01,299.8h-49.57v-48.82l8.26-44.32l-8.64-43.94V28.27h49.95V299.8z"/>
	</g>
	<g>
		<path class="st1" d="M2723.8,303.93c-19.03,0-36-4.13-50.89-12.39c-14.9-8.26-26.61-19.53-35.12-33.8
			c-8.51-14.27-12.77-30.54-12.77-48.82c0-18.03,4.19-34.18,12.58-48.45c8.39-14.27,19.84-25.54,34.36-33.8
			c14.52-8.26,30.8-12.39,48.82-12.39c17.02,0,32.3,3.89,45.82,11.64c13.52,7.76,24.04,18.53,31.55,32.3
			c7.51,13.77,11.27,29.42,11.27,46.95c0,3.26-0.13,6.57-0.38,9.95c-0.25,3.38-0.88,7.08-1.88,11.08l-152.86,0.38v-36.81
			l129.95-0.38l-20.28,15.4c-0.25-10.76-2.13-19.78-5.63-27.04c-3.51-7.26-8.39-12.77-14.65-16.52c-6.26-3.76-14.03-5.63-23.29-5.63
			c-9.76,0-18.28,2.13-25.54,6.39c-7.27,4.26-12.83,10.33-16.71,18.22c-3.89,7.89-5.82,17.22-5.82,27.98
			c0,11.02,2.07,20.6,6.2,28.73c4.13,8.14,10.08,14.34,17.84,18.59c7.76,4.26,16.77,6.39,27.04,6.39c9.26,0,17.65-1.5,25.16-4.51
			c7.51-3,14.02-7.76,19.53-14.27l29.29,29.29c-9.27,10.52-20.16,18.4-32.67,23.66C2752.22,301.3,2738.57,303.93,2723.8,303.93z"/>
	</g>
</g>
</svg>
