<?xml version="1.0" encoding="utf-8"?>
<!-- Generator: Adobe Illustrator 24.0.0, SVG Export Plug-In . SVG Version: 6.00 Build 0)  -->
<svg version="1.1" id="Layer_1" xmlns="http://www.w3.org/2000/svg" xmlns:xlink="http://www.w3.org/1999/xlink" x="0px" y="0px"
	 viewBox="0 0 2862.67 548.52" style="enable-background:new 0 0 2862.67 548.52;" xml:space="preserve">
<style type="text/css">
	.st0{fill:#BBBDBF;}
	.st1{fill:#339EB8;}
	.st2{fill:#3766AF;}
</style>
<g>
	<g>
		<path class="st0" d="M2729.13,104.6V53.45h-20.55V42.89h52.82v10.56h-20.58v51.15H2729.13z M2769.73,104.6V42.89h22.24
			l11.66,51.15h2.79l11.69-51.15h22.22v61.71h-11.66V53.45h-2.79l-11.69,51.15h-18.33l-11.69-51.15h-2.76v51.15H2769.73z"/>
	</g>
	<g>
		<g>
			<path class="st1" d="M22.35,498.87V67.03h83.54v431.84H22.35z M83.78,318.89v-65.73h99.51c20.89,0,36.86-5.22,47.91-15.66
				c11.06-10.44,16.58-24.67,16.58-42.69c0-17.2-5.53-31.42-16.58-42.69c-11.06-11.26-26.83-16.89-47.3-16.89H83.78V67.03h108.11
				c27.43,0,51.69,5.43,72.79,16.28c21.09,10.86,37.47,25.71,49.14,44.54c11.67,18.84,17.51,40.54,17.51,65.11
				c0,25.4-5.84,47.41-17.51,66.04c-11.67,18.64-28.16,33.28-49.45,43.92c-21.3,10.65-46.07,15.97-74.33,15.97H83.78z
				 M258.23,498.87L115.1,312.13l77.4-23.96l167.08,210.7H258.23z"/>
		</g>
		<g>
			<path class="st1" d="M498.42,505.63c-31.13,0-58.88-6.76-83.24-20.27c-24.37-13.51-43.52-31.94-57.43-55.29
				c-13.93-23.34-20.88-49.96-20.88-79.86c0-29.49,6.85-55.9,20.58-79.24c13.71-23.34,32.45-41.77,56.21-55.29
				c23.75-13.51,50.37-20.27,79.86-20.27c27.85,0,52.83,6.36,74.94,19.04c22.11,12.7,39.31,30.31,51.6,52.83
				c12.29,22.53,18.43,48.13,18.43,76.79c0,5.33-0.21,10.75-0.61,16.28c-0.41,5.53-1.44,11.58-3.07,18.12l-250.01,0.62v-60.2
				l212.54-0.62l-33.17,25.19c-0.41-17.6-3.48-32.35-9.22-44.23c-5.74-11.87-13.73-20.88-23.96-27.03
				c-10.24-6.14-22.94-9.22-38.09-9.22c-15.97,0-29.9,3.49-41.77,10.44c-11.88,6.97-20.99,16.89-27.33,29.79
				c-6.35,12.9-9.52,28.16-9.52,45.76c0,18.03,3.38,33.69,10.14,46.99c6.76,13.31,16.48,23.45,29.18,30.41
				c12.69,6.97,27.43,10.44,44.23,10.44c15.15,0,28.87-2.46,41.16-7.37c12.28-4.91,22.93-12.69,31.94-23.34l47.91,47.91
				c-15.16,17.2-32.97,30.1-53.44,38.7C544.89,501.33,522.58,505.63,498.42,505.63z"/>
		</g>
		<g>
			<path class="st1" d="M658.12,498.87v-296.7h80.47v296.7H658.12z M857.15,498.87V328.71c0-17.6-5.53-31.94-16.58-43
				c-11.06-11.06-25.19-16.59-42.38-16.59c-11.47,0-21.71,2.46-30.71,7.37c-9.01,4.91-16.08,11.98-21.19,21.19
				c-5.12,9.22-7.68,19.56-7.68,31.02l-31.33-16.59c0-22.93,5.01-43.1,15.05-60.51c10.03-17.4,23.96-31.02,41.77-40.85
				s37.98-14.74,60.51-14.74c22.11,0,41.67,5.43,58.67,16.28c16.99,10.86,30.41,24.99,40.23,42.38
				c9.83,17.41,14.74,35.94,14.74,55.6v188.58H857.15z"/>
		</g>
		<g>
			<path class="st1" d="M943.15,272.81v-70.64h219.3v70.64H943.15z M1012.56,498.87V78.7h80.47v420.17H1012.56z"/>
		</g>
		<g>
			<path class="st1" d="M1293.29,505.01c-27.03,0-51.29-6.76-72.79-20.27c-21.5-13.51-38.39-31.94-50.68-55.29
				c-12.28-23.34-18.43-49.55-18.43-78.63c0-29.48,6.14-55.9,18.43-79.24c12.29-23.34,29.18-41.77,50.68-55.28
				c21.5-13.52,45.97-20.27,73.41-20.27c20.89,0,39.72,4.3,56.51,12.9c16.79,8.6,30.3,20.49,40.54,35.63
				c10.23,15.16,15.76,32.56,16.59,52.21v107.5c-0.83,19.25-6.25,36.55-16.28,51.91c-10.04,15.35-23.56,27.33-40.54,35.93
				C1333.73,500.71,1314.58,505.01,1293.29,505.01z M1308.64,430.68c22.52,0,40.74-7.57,54.67-22.73
				c13.92-15.15,20.89-34.19,20.89-57.13c0-15.56-3.28-29.48-9.83-41.77c-6.56-12.29-15.36-21.81-26.41-28.57
				c-11.06-6.76-24.17-10.14-39.32-10.14c-14.74,0-27.75,3.49-39.01,10.44c-11.27,6.97-20.07,16.38-26.41,28.26
				c-6.35,11.88-9.52,25.6-9.52,41.16c0,15.97,3.17,29.9,9.52,41.77c6.34,11.88,15.25,21.3,26.72,28.26
				C1281.41,427.21,1294.31,430.68,1308.64,430.68z M1379.29,498.87v-79.86l13.51-72.48l-13.51-71.87v-72.48h81.08v296.7H1379.29z"
				/>
		</g>
		<g>
			<path class="st2" d="M1634.51,498.87V67.03h83.54v431.84H1634.51z M1695.93,318.89v-65.73h99.51c20.89,0,36.86-5.22,47.91-15.66
				c11.06-10.44,16.58-24.67,16.58-42.69c0-17.2-5.53-31.42-16.58-42.69c-11.06-11.26-26.83-16.89-47.3-16.89h-100.13V67.03h108.11
				c27.43,0,51.69,5.43,72.79,16.28c21.09,10.86,37.47,25.71,49.14,44.54c11.67,18.84,17.51,40.54,17.51,65.11
				c0,25.4-5.84,47.41-17.51,66.04c-11.67,18.64-28.16,33.28-49.45,43.92c-21.3,10.65-46.07,15.97-74.33,15.97H1695.93z
				 M1870.39,498.87l-143.13-186.74l77.4-23.96l167.08,210.7H1870.39z"/>
		</g>
		<g>
			<path class="st2" d="M2028.87,154.26c-13.11,0-23.96-4.39-32.56-13.21c-8.6-8.8-12.9-19.75-12.9-32.86
				c0-12.69,4.3-23.54,12.9-32.56c8.6-9.01,19.45-13.51,32.56-13.51c13.52,0,24.47,4.51,32.86,13.51
				c8.39,9.01,12.59,19.87,12.59,32.56c0,13.11-4.2,24.06-12.59,32.86C2053.34,149.86,2042.39,154.26,2028.87,154.26z
				 M1987.72,498.87v-296.7h81.7v296.7H1987.72z"/>
		</g>
		<g>
			<path class="st2" d="M2234.65,505.01c-27.44,0-51.91-6.76-73.41-20.27c-21.5-13.51-38.6-31.94-51.29-55.29
				c-12.7-23.34-19.04-49.55-19.04-78.63c0-29.48,6.34-55.9,19.04-79.24c12.69-23.34,29.79-41.77,51.29-55.28
				c21.5-13.52,45.97-20.27,73.41-20.27c21.29,0,40.54,4.4,57.74,13.21c17.2,8.81,31.02,20.79,41.46,35.94
				c10.44,15.16,16.07,32.35,16.89,51.6v105.66c-0.83,19.66-6.35,37.27-16.59,52.83c-10.24,15.57-23.96,27.75-41.16,36.55
				C2275.81,500.61,2256.35,505.01,2234.65,505.01z M2248.78,430.68c14.74,0,27.85-3.47,39.32-10.44
				c11.46-6.96,20.37-16.38,26.72-28.26c6.35-11.87,9.52-25.59,9.52-41.16c0-15.97-3.18-29.89-9.52-41.77
				c-6.35-11.88-15.16-21.29-26.41-28.26c-11.27-6.96-24.26-10.44-39.01-10.44c-15.16,0-28.36,3.38-39.62,10.14
				c-11.27,6.75-20.07,16.18-26.41,28.26c-6.35,12.09-9.52,25.91-9.52,41.47c0,15.97,3.17,30,9.52,42.08
				c6.34,12.08,15.25,21.5,26.72,28.26C2221.54,427.31,2234.44,430.68,2248.78,430.68z M2400.51,498.87h-81.08v-79.86l13.51-72.48
				l-14.13-71.87V54.74h81.7V498.87z"/>
		</g>
		<g>
			<path class="st2" d="M2581.72,505.63c-31.13,0-58.88-6.76-83.24-20.27c-24.37-13.51-43.52-31.94-57.43-55.29
				c-13.93-23.34-20.88-49.96-20.88-79.86c0-29.49,6.85-55.9,20.58-79.24c13.71-23.34,32.45-41.77,56.21-55.29
				c23.75-13.51,50.37-20.27,79.86-20.27c27.85,0,52.83,6.36,74.94,19.04c22.11,12.7,39.31,30.31,51.6,52.83
				c12.29,22.53,18.43,48.13,18.43,76.79c0,5.33-0.21,10.75-0.61,16.28c-0.41,5.53-1.44,11.58-3.07,18.12l-250.01,0.62v-60.2
				l212.54-0.62l-33.17,25.19c-0.41-17.6-3.48-32.35-9.22-44.23c-5.74-11.87-13.73-20.88-23.96-27.03
				c-10.24-6.14-22.94-9.22-38.09-9.22c-15.97,0-29.9,3.49-41.77,10.44c-11.88,6.97-20.99,16.89-27.33,29.79
				c-6.35,12.9-9.52,28.16-9.52,45.76c0,18.03,3.38,33.69,10.14,46.99c6.76,13.31,16.48,23.45,29.18,30.41
				c12.69,6.97,27.43,10.44,44.23,10.44c15.15,0,28.87-2.46,41.16-7.37c12.28-4.91,22.93-12.69,31.94-23.34l47.91,47.91
				c-15.16,17.2-32.97,30.1-53.44,38.7C2628.19,501.33,2605.87,505.63,2581.72,505.63z"/>
		</g>
	</g>
</g>
</svg>
