<?xml version="1.0" encoding="utf-8"?>
<!-- Generator: Adobe Illustrator 24.0.0, SVG Export Plug-In . SVG Version: 6.00 Build 0)  -->
<svg version="1.1" id="Layer_1" xmlns="http://www.w3.org/2000/svg" xmlns:xlink="http://www.w3.org/1999/xlink" x="0px" y="0px"
	 viewBox="0 0 2862.7 548.5" style="enable-background:new 0 0 2862.7 548.5;" xml:space="preserve">
<style type="text/css">
	.st0{fill:#BBBDBF;}
	.st1{fill:#339EB8;}
	.st2{fill:#3766AF;}
</style>
<g>
	<g>
		<path class="st0" d="M2729.1,104.6V53.5h-20.6V42.9h52.8v10.6h-20.6v51.2C2740.8,104.6,2729.1,104.6,2729.1,104.6z M2769.7,104.6
			V42.9h22.2l11.7,51.2h2.8l11.7-51.2h22.2v61.7h-11.7V53.5h-2.8l-11.7,51.2h-18.3l-11.7-51.2h-2.8v51.2
			C2781.4,104.6,2769.7,104.6,2769.7,104.6z"/>
	</g>
	<g>
		<g>
			<path class="st1" d="M22.4,498.9V67h83.5v431.8H22.4z M83.8,318.9v-65.7h99.5c20.9,0,36.9-5.2,47.9-15.7
				c11.1-10.4,16.6-24.7,16.6-42.7c0-17.2-5.5-31.4-16.6-42.7c-11.1-11.3-26.8-16.9-47.3-16.9H83.8V67h108.1
				c27.4,0,51.7,5.4,72.8,16.3c21.1,10.9,37.5,25.7,49.1,44.5c11.7,18.8,17.5,40.5,17.5,65.1c0,25.4-5.8,47.4-17.5,66
				c-11.7,18.6-28.2,33.3-49.5,43.9c-21.3,10.6-46.1,16-74.3,16L83.8,318.9L83.8,318.9z M258.2,498.9L115.1,312.1l77.4-24
				l167.1,210.7H258.2z"/>
		</g>
		<g>
			<path class="st1" d="M498.4,505.6c-31.1,0-58.9-6.8-83.2-20.3c-24.4-13.5-43.5-31.9-57.4-55.3c-13.9-23.3-20.9-50-20.9-79.9
				c0-29.5,6.9-55.9,20.6-79.2c13.7-23.3,32.5-41.8,56.2-55.3c23.8-13.5,50.4-20.3,79.9-20.3c27.8,0,52.8,6.4,74.9,19
				c22.1,12.7,39.3,30.3,51.6,52.8c12.3,22.5,18.4,48.1,18.4,76.8c0,5.3-0.2,10.8-0.6,16.3c-0.4,5.5-1.4,11.6-3.1,18.1l-250,0.6
				v-60.2l212.5-0.6l-33.2,25.2c-0.4-17.6-3.5-32.4-9.2-44.2c-5.7-11.9-13.7-20.9-24-27c-10.2-6.1-22.9-9.2-38.1-9.2
				c-16,0-29.9,3.5-41.8,10.4c-11.9,7-21,16.9-27.3,29.8c-6.4,12.9-9.5,28.2-9.5,45.8c0,18,3.4,33.7,10.1,47
				c6.8,13.3,16.5,23.5,29.2,30.4c12.7,7,27.4,10.4,44.2,10.4c15.1,0,28.9-2.5,41.2-7.4c12.3-4.9,22.9-12.7,31.9-23.3l47.9,47.9
				c-15.2,17.2-33,30.1-53.4,38.7C544.9,501.3,522.6,505.6,498.4,505.6z"/>
		</g>
		<g>
			<path class="st1" d="M658.1,498.9V202.2h80.5v296.7H658.1z M857.2,498.9V328.7c0-17.6-5.5-31.9-16.6-43
				c-11.1-11.1-25.2-16.6-42.4-16.6c-11.5,0-21.7,2.5-30.7,7.4c-9,4.9-16.1,12-21.2,21.2c-5.1,9.2-7.7,19.6-7.7,31l-31.3-16.6
				c0-22.9,5-43.1,15-60.5c10-17.4,24-31,41.8-40.8s38-14.7,60.5-14.7c22.1,0,41.7,5.4,58.7,16.3c17,10.9,30.4,25,40.2,42.4
				c9.8,17.4,14.7,35.9,14.7,55.6v188.6L857.2,498.9L857.2,498.9z"/>
		</g>
		<g>
			<path class="st1" d="M943.2,272.8v-70.6h219.3v70.6H943.2z M1012.6,498.9V78.7h80.5v420.2H1012.6z"/>
		</g>
		<g>
			<path class="st1" d="M1293.3,505c-27,0-51.3-6.8-72.8-20.3c-21.5-13.5-38.4-31.9-50.7-55.3c-12.3-23.3-18.4-49.5-18.4-78.6
				c0-29.5,6.1-55.9,18.4-79.2s29.2-41.8,50.7-55.3c21.5-13.5,46-20.3,73.4-20.3c20.9,0,39.7,4.3,56.5,12.9
				c16.8,8.6,30.3,20.5,40.5,35.6c10.2,15.2,15.8,32.6,16.6,52.2v107.5c-0.8,19.3-6.3,36.5-16.3,51.9c-10,15.4-23.6,27.3-40.5,35.9
				C1333.7,500.7,1314.6,505,1293.3,505z M1308.6,430.7c22.5,0,40.7-7.6,54.7-22.7c13.9-15.1,20.9-34.2,20.9-57.1
				c0-15.6-3.3-29.5-9.8-41.8c-6.6-12.3-15.4-21.8-26.4-28.6c-11.1-6.8-24.2-10.1-39.3-10.1c-14.7,0-27.8,3.5-39,10.4
				c-11.3,7-20.1,16.4-26.4,28.3c-6.3,11.9-9.5,25.6-9.5,41.2c0,16,3.2,29.9,9.5,41.8c6.3,11.9,15.3,21.3,26.7,28.3
				C1281.4,427.2,1294.3,430.7,1308.6,430.7z M1379.3,498.9V419l13.5-72.5l-13.5-71.9v-72.5h81.1v296.7L1379.3,498.9L1379.3,498.9z"
				/>
		</g>
		<g>
			<path class="st2" d="M1634.5,498.9V67h83.5v431.8H1634.5z M1695.9,318.9v-65.7h99.5c20.9,0,36.9-5.2,47.9-15.7
				c11.1-10.4,16.6-24.7,16.6-42.7c0-17.2-5.5-31.4-16.6-42.7c-11.1-11.3-26.8-16.9-47.3-16.9h-100.1V67H1804
				c27.4,0,51.7,5.4,72.8,16.3c21.1,10.9,37.5,25.7,49.1,44.5c11.7,18.8,17.5,40.5,17.5,65.1c0,25.4-5.8,47.4-17.5,66
				c-11.7,18.6-28.2,33.3-49.4,43.9c-21.3,10.6-46.1,16-74.3,16L1695.9,318.9L1695.9,318.9z M1870.4,498.9l-143.1-186.7l77.4-24
				l167.1,210.7H1870.4z"/>
		</g>
		<g>
			<path class="st2" d="M2028.9,154.3c-13.1,0-24-4.4-32.6-13.2c-8.6-8.8-12.9-19.8-12.9-32.9c0-12.7,4.3-23.5,12.9-32.6
				c8.6-9,19.4-13.5,32.6-13.5c13.5,0,24.5,4.5,32.9,13.5c8.4,9,12.6,19.9,12.6,32.6c0,13.1-4.2,24.1-12.6,32.9
				C2053.3,149.9,2042.4,154.3,2028.9,154.3z M1987.7,498.9V202.2h81.7v296.7H1987.7z"/>
		</g>
		<g>
			<path class="st2" d="M2234.6,505c-27.4,0-51.9-6.8-73.4-20.3c-21.5-13.5-38.6-31.9-51.3-55.3c-12.7-23.3-19-49.5-19-78.6
				c0-29.5,6.3-55.9,19-79.2c12.7-23.3,29.8-41.8,51.3-55.3c21.5-13.5,46-20.3,73.4-20.3c21.3,0,40.5,4.4,57.7,13.2
				c17.2,8.8,31,20.8,41.5,35.9c10.4,15.2,16.1,32.4,16.9,51.6v105.7c-0.8,19.7-6.4,37.3-16.6,52.8c-10.2,15.6-24,27.8-41.2,36.5
				C2275.8,500.6,2256.4,505,2234.6,505z M2248.8,430.7c14.7,0,27.9-3.5,39.3-10.4c11.5-7,20.4-16.4,26.7-28.3
				c6.4-11.9,9.5-25.6,9.5-41.2c0-16-3.2-29.9-9.5-41.8c-6.4-11.9-15.2-21.3-26.4-28.3c-11.3-7-24.3-10.4-39-10.4
				c-15.2,0-28.4,3.4-39.6,10.1c-11.3,6.8-20.1,16.2-26.4,28.3c-6.4,12.1-9.5,25.9-9.5,41.5c0,16,3.2,30,9.5,42.1
				c6.3,12.1,15.3,21.5,26.7,28.3C2221.5,427.3,2234.4,430.7,2248.8,430.7z M2400.5,498.9h-81.1V419l13.5-72.5l-14.1-71.9V54.7h81.7
				V498.9z"/>
		</g>
		<g>
			<path class="st2" d="M2581.7,505.6c-31.1,0-58.9-6.8-83.2-20.3c-24.4-13.5-43.5-31.9-57.4-55.3c-13.9-23.3-20.9-50-20.9-79.9
				c0-29.5,6.9-55.9,20.6-79.2c13.7-23.3,32.4-41.8,56.2-55.3c23.8-13.5,50.4-20.3,79.9-20.3c27.9,0,52.8,6.4,74.9,19
				c22.1,12.7,39.3,30.3,51.6,52.8c12.3,22.5,18.4,48.1,18.4,76.8c0,5.3-0.2,10.8-0.6,16.3c-0.4,5.5-1.4,11.6-3.1,18.1l-250,0.6
				v-60.2l212.5-0.6l-33.2,25.2c-0.4-17.6-3.5-32.4-9.2-44.2c-5.7-11.9-13.7-20.9-24-27c-10.2-6.1-22.9-9.2-38.1-9.2
				c-16,0-29.9,3.5-41.8,10.4c-11.9,7-21,16.9-27.3,29.8c-6.4,12.9-9.5,28.2-9.5,45.8c0,18,3.4,33.7,10.1,47
				c6.8,13.3,16.5,23.5,29.2,30.4c12.7,7,27.4,10.4,44.2,10.4c15.1,0,28.9-2.5,41.2-7.4c12.3-4.9,22.9-12.7,31.9-23.3l47.9,47.9
				c-15.2,17.2-33,30.1-53.4,38.7C2628.2,501.3,2605.9,505.6,2581.7,505.6z"/>
		</g>
	</g>
</g>
</svg>
